PathFileType	4	(X/Y/Z)	C:/Users/opensim2020/Desktop/walking_exp_matlab/subject03_walking04_straight_02.trc	
DataRate	CameraRate	NumFrames	NumMarkers	Units	OrigDataRate	OrigDataStartFrame	OrigNumFrames	
100.00	100.00	4	51	mm	100.00	1701	259	
Frame#	Time	LFHD			RFHD			LBHD			RBHD			C7			T10			CLAV			STRN			RBAK			LSHO			LUPA			LELB			LFRM			LWRA			LWRB			LFIN			RSHO			RUPA			RELB			RFRM			RWRA			RWRB			RFIN			LASI			RASI			LPSI			RPSI			LTHI			LKNE			LTIB			LANK			LHEE			LTOE			RTHI			RKNE			RTIB			RANK			RHEE			RTOE			*39			*40			*41			*42			*43			*44			*45			*46			*47			*48			*49			*50			
		X1	Y1	Z1	X2	Y2	Z2	X3	Y3	Z3	X4	Y4	Z4	X5	Y5	Z5	X6	Y6	Z6	X7	Y7	Z7	X8	Y8	Z8	X9	Y9	Z9	X10	Y10	Z10	X11	Y11	Z11	X12	Y12	Z12	X13	Y13	Z13	X14	Y14	Z14	X15	Y15	Z15	X16	Y16	Z16	X17	Y17	Z17	X18	Y18	Z18	X19	Y19	Z19	X20	Y20	Z20	X21	Y21	Z21	X22	Y22	Z22	X23	Y23	Z23	X24	Y24	Z24	X25	Y25	Z25	X26	Y26	Z26	X27	Y27	Z27	X28	Y28	Z28	X29	Y29	Z29	X30	Y30	Z30	X31	Y31	Z31	X32	Y32	Z32	X33	Y33	Z33	X34	Y34	Z34	X35	Y35	Z35	X36	Y36	Z36	X37	Y37	Z37	X38	Y38	Z38	X39	Y39	Z39	X40	Y40	Z40	X41	Y41	Z41	X42	Y42	Z42	X43	Y43	Z43	X44	Y44	Z44	X45	Y45	Z45	X46	Y46	Z46	X47	Y47	Z47	X48	Y48	Z48	X49	Y49	Z49	X50	Y50	Z50	X51	Y51	Z51	

162	1.610	1627.05481	-155.45374	1615.35059	1495.53345	-130.08881	1617.78748	1646.50720	-24.80117	1583.80615	1516.68713	-4.88746	1586.15601	1581.60229	26.52323	1420.47681	1579.74011	64.21201	1105.28625	1578.77429	-91.89484	1340.82178	1581.96704	-133.79823	1175.74084	1480.00842	82.02419	1245.45874	1735.86902	-46.83408	1376.30981	1803.53735	-26.63638	1176.97888	1812.06812	-25.36545	1053.10693	1808.38086	-46.28451	924.47968	1775.85803	-58.63435	807.96924	1826.86768	-37.09556	811.53827	1814.91309	-47.66494	728.27130	1420.45215	-48.97197	1368.04761	1342.49500	-84.86747	1151.32288	1329.19873	-124.84521	1046.07300	1328.78113	-174.17188	918.55969	1368.10840	-222.81454	833.37695	1320.92700	-198.67644	821.35651	1333.43030	-237.83357	758.64801	1691.28857	-109.22234	942.70996	1453.50806	-97.71249	941.02240	1650.90649	55.31524	959.22705	1501.46216	59.67242	973.56519	1746.30823	-142.15378	652.43945	1713.50952	-207.43123	486.61078	1713.92505	-139.85176	299.23883	1676.18152	-92.60661	95.75846	1635.93750	-48.35632	63.24175	1656.47913	-231.39136	45.31198	1423.97803	-14.21816	648.61584	1465.36438	-2.24975	470.25638	1468.46936	69.87839	291.84341	1525.07520	124.29153	83.40078	1578.12439	168.68793	56.95135	1535.23157	-15.21534	36.19706																																				 
163	1.620	1627.24194	-165.75334	1614.39734	1496.07422	-140.49431	1616.97766	1647.21680	-35.11370	1582.93677	1517.33936	-15.30861	1585.39575	1582.00635	16.24290	1419.85254	1580.46680	54.63147	1104.75562	1579.14209	-102.04216	1339.86975	1582.10181	-143.49019	1174.68726	1480.38440	72.19927	1245.16638	1736.37903	-56.91853	1375.47412	1804.16931	-34.21392	1176.27686	1812.68420	-31.26884	1052.40320	1808.98096	-50.66776	923.58038	1775.86877	-61.23240	806.59296	1827.24622	-40.13991	810.67194	1815.14783	-49.93080	727.34515	1420.91956	-59.19188	1367.43982	1342.62024	-96.11371	1151.20081	1329.28821	-137.21440	1046.39465	1328.89209	-188.20016	919.55786	1368.41150	-237.86945	835.12372	1321.29150	-214.06937	822.71985	1333.48218	-254.05894	760.68347	1691.34082	-119.11082	941.74847	1453.42419	-106.53086	940.13452	1651.66589	45.50448	958.61975	1502.29578	50.64117	973.04913	1746.14771	-151.05949	651.28558	1712.48816	-216.96576	485.90372	1712.80920	-158.68021	295.93500	1675.17651	-123.06512	89.85969	1634.74011	-81.29060	55.31519	1655.58521	-264.97159	46.12779	1424.12366	-20.48378	648.39886	1465.22827	-6.92619	470.10745	1468.47253	67.29162	292.40399	1525.19873	123.73051	84.50587	1578.25378	168.09822	58.17589	1535.11743	-15.30737	36.14879																																				 
164	1.630	1627.93103	-176.39740	1613.43628	1496.65271	-150.88548	1616.14795	1647.86487	-45.67539	1582.03833	1517.96082	-25.72212	1584.55713	1582.26563	5.62762	1418.89868	1581.28198	45.00556	1104.20361	1579.58374	-112.31376	1338.92151	1582.19434	-153.19823	1173.62781	1480.81750	62.29888	1244.78516	1736.86780	-67.14092	1374.57996	1804.77576	-41.85310	1175.64636	1813.26135	-37.22398	1051.71228	1809.54822	-55.25840	922.71863	1776.73645	-65.05351	806.09235	1827.63745	-43.43448	809.88037	1815.25391	-52.26932	726.42688	1421.38721	-69.45569	1366.71948	1342.79529	-107.21426	1150.93994	1329.40881	-149.39572	1046.64148	1329.17029	-201.99643	920.45087	1368.79211	-252.74788	836.81824	1321.77332	-229.13010	824.01263	1333.87061	-270.13086	762.77740	1691.49097	-129.01588	940.56702	1453.55725	-115.39692	939.22528	1652.57080	35.71638	957.90820	1503.11548	41.58615	972.52399	1745.98132	-159.26459	649.57019	1711.37207	-225.93221	484.79520	1711.82642	-176.86101	292.74533	1673.65881	-155.29536	84.78293	1633.44739	-114.25716	48.42605	1654.75183	-298.17499	47.21791	1424.59265	-27.05677	648.10760	1465.15662	-11.77121	469.92743	1468.43823	64.63326	293.01120	1525.30396	123.50748	85.42126	1578.26331	168.07701	59.86295	1534.99451	-15.40189	36.07038																																				 
165	1.640	1628.32288	-186.97444	1612.38428	1497.18567	-161.33578	1615.23816	1648.52222	-56.29897	1581.14185	1518.67993	-36.09983	1583.81982	1583.05322	-4.32401	1418.48047	1582.28760	35.29551	1103.56628	1580.00928	-122.56274	1337.90588	1582.33130	-163.08713	1172.47473	1481.41980	52.37988	1244.34900	1737.42554	-77.53906	1373.65552	1805.41870	-49.57106	1174.93958	1813.91956	-43.44113	1051.03772	1810.11353	-60.08093	921.87018	1776.65747	-68.20188	804.70789	1827.99573	-46.91219	809.16180	1815.69934	-55.10636	725.70288	1421.93030	-79.71037	1365.93896	1343.02734	-118.24290	1150.63074	1329.59058	-161.31691	1046.76270	1329.56653	-215.58794	921.28705	1369.19080	-267.65164	838.48492	1322.45142	-243.88431	825.15936	1334.43994	-286.05487	764.77600	1691.77002	-139.10428	939.33344	1453.69897	-124.35381	938.11646	1653.51013	25.77591	957.08636	1504.12158	32.31955	971.83722	1745.75806	-166.79498	647.44897	1710.20117	-234.31026	483.29977	1710.76660	-194.79169	289.83017	1672.84375	-185.51454	80.44483	1632.14563	-146.71103	42.93098	1653.96533	-330.54877	48.67231	1424.96887	-33.81392	647.97614	1465.01306	-16.79306	469.78619	1468.61633	61.70745	293.63406	1525.14624	122.86809	86.58315	1578.34424	167.61833	61.53697	1534.89331	-15.51847	35.99453																																				 
